<?xml version="1.0" encoding="utf-8"?>
<svg viewBox="0 0 500 500" xmlns="http://www.w3.org/2000/svg">
  <rect width="100%" height="100%" fill-opacity="1" transform="matrix(1, 0, 0, 1, -599.344195, -214.883143)" style="fill: rgb(73, 252, 212);"/>
  <svg viewBox="-49.4189 78.1525 341.4894 120" width="333" height="117.01680930652606" x="83.5px" y="191.4916px" xmlns="http://www.w3.org/2000/svg" preserveAspectRatio="none" transform="matrix(1, 0, 0, 1, -614.623712, -220.361311)">
    <g opacity="1" transform="rotate(0 -49.4189 78.1525)">
      <svg width="120" height="120" x="-49.4189" y="78.1525" version="1.1" preserveAspectRatio="none" viewBox="0 0 128 128">
        <g transform="matrix(1 0 0 1 0 0)" class="icon1" style="fill: rgb(24, 33, 69);">
          <path d="M125.9,98.3H2c-1.1,0-2,0.9-2,2s0.9,2,2,2h58.9v18.9c-2.3,0.4-4.2,1.5-4.8,2.8H49c-1.1,0-2,0.9-2,2s0.9,2,2,2h28  c1.1,0,2-0.9,2-2s-0.9-2-2-2h-7.3c-0.6-1.4-2.4-2.4-4.8-2.8v-18.9h60.9c1.1,0,2-0.9,2-2S127,98.3,125.9,98.3L125.9,98.3z"/>
          <path d="M127.4,87.2L107,54.9c-0.7-1.2-2-2-3.5-2H23.7c-1.4,0-2.8,0.8-3.5,2L0.7,87.3c-1.1,1.9-0.4,4.4,1.5,5.5  c0.6,0.4,1.3,0.5,2,0.5H124c2.2,0,4-1.8,4-4C128,88.6,127.8,87.9,127.4,87.2z M107.2,71.5l2.1,3.9c0.6,1.1,0.1,2-1.2,2h-4.3  c-1.3-0.1-2.5-0.8-3.1-2L99,71.5c-0.5-1.1,0-2,1.2-2h3.9C105.4,69.6,106.6,70.4,107.2,71.5z M95,60h3.5c1.2,0.2,2.3,0.9,2.8,2l2,3.9  c0.6,1.1,0.2,2-0.9,2h-3.8c-1.2-0.1-2.3-0.9-2.8-2L94.1,62C93.6,61,94,60,95,60z M75.5,60H79c1.1,0.1,2,0.9,2.3,2l1,3.9  c0.3,0.8-0.1,1.6-0.9,1.9c-0.2,0.1-0.4,0.1-0.6,0.1h-3.9c-1.1,0-2.1-0.9-2.3-2L74.1,62c-0.2-0.9,0.3-1.7,1.2-2  C75.3,60,75.4,60,75.5,60z M44.5,66l1-3.9c0.2-1.1,1.2-1.9,2.3-2h3.5c0.9,0,1.6,0.8,1.5,1.7c0,0.1,0,0.2,0,0.3L52.1,66  c-0.2,1.1-1.1,2-2.3,2H46c-0.8,0.1-1.6-0.6-1.6-1.4C44.4,66.4,44.4,66.2,44.5,66z M23.4,66l2-3.9c0.5-1.1,1.6-1.8,2.8-2h3.5  c1,0,1.4,0.9,1,2L31,66c-0.5,1.1-1.6,1.9-2.8,2h-3.9C23.2,68,22.8,67.1,23.4,66z M17.5,75.4l2.1-3.9c0.6-1.1,1.8-1.9,3.1-2h3.9  c1.1,0,1.6,0.9,1.2,2L26,75.4c-0.6,1.2-1.8,1.9-3.1,2h-4.3C17.4,77.4,16.9,76.5,17.5,75.4z M17.5,86.9h-4.8c-1.4,0-2-0.9-1.4-2  l2.1-3.9c0.7-1.2,2-1.9,3.3-2h4.4c0.7-0.1,1.4,0.4,1.5,1.1c0,0.3,0,0.6-0.2,0.9l-1.7,3.9C20.1,86.1,18.8,86.8,17.5,86.9L17.5,86.9z   M33.4,80.9l-1.3,3.9c-0.5,1.2-1.8,2-3.1,2h-4.8c-1.4,0-2.1-0.9-1.6-2l1.6-3.9c0.6-1.2,1.8-1.9,3.1-2h4.4c0.8-0.1,1.6,0.5,1.7,1.3  C33.4,80.5,33.4,80.7,33.4,80.9L33.4,80.9z M37.4,71.5l-1.2,3.9c-0.5,1.2-1.6,2-2.8,2H29c-0.7,0.1-1.4-0.4-1.5-1.1  c0-0.3,0-0.6,0.2-0.9l1.6-3.9c0.5-1.1,1.6-1.9,2.8-2h4c0.8-0.1,1.5,0.5,1.5,1.3C37.6,71,37.5,71.3,37.4,71.5L37.4,71.5z M37.5,68  h-3.9c-1.1,0-1.6-0.9-1.2-2l1.5-4c0.4-1.1,1.4-1.9,2.6-2h3.5c1,0,1.5,0.9,1.2,2l-1.1,4C39.7,67.2,38.7,67.9,37.5,68L37.5,68z   M49.9,80.9l-0.6,3.9c-0.3,1.2-1.5,2.1-2.7,2h-4.8c-1.4,0-2.2-0.9-2-2l1-3.9c0.4-1.2,1.5-2,2.7-2H48c1-0.1,1.9,0.7,1.9,1.7  C49.9,80.7,49.9,80.8,49.9,80.9L49.9,80.9z M48.2,77.4h-4.3c-0.9,0.1-1.7-0.5-1.8-1.4c0-0.2,0-0.4,0-0.6l1-3.9  c0.3-1.1,1.3-1.9,2.5-2h3.9c0.9,0,1.7,0.7,1.8,1.6c0,0.1,0,0.2,0,0.4l-0.6,3.9C50.5,76.6,49.4,77.5,48.2,77.4L48.2,77.4z M60.7,84.9  c-0.2,1.2-1.3,2.1-2.5,2h-4.8c-1.4,0-2.3-0.9-2.2-2l0.5-3.9c0.2-1.2,1.3-2,2.5-2h4.4c1.1-0.1,2.1,0.8,2.2,1.9c0,0,0,0,0,0.1  L60.7,84.9z M60.9,75.4c-0.1,1.2-1.1,2.1-2.3,2h-4.3c-1,0.1-1.9-0.6-2-1.6c0-0.1,0-0.3,0-0.4l0.5-3.9c0.2-1.1,1.1-2,2.3-2H59  c1.1,0,2,0.9,2,2L60.9,75.4z M61.2,66c0,1.1-0.9,2-2,2h-3.9c-0.9,0-1.7-0.7-1.8-1.7c0-0.1,0-0.2,0-0.3l0.5-4c0.1-1.1,0.9-1.9,2-2  h3.5c1,0.1,1.8,0.9,1.7,2c0,0,0,0,0,0L61.2,66z M65.4,62c-0.1-1,0.7-1.9,1.7-2c0,0,0,0,0,0h3.5c1.1,0.1,1.9,0.9,2,2l0.5,4  c0.2,0.9-0.5,1.8-1.4,2c-0.1,0-0.2,0-0.3,0h-3.9c-1.1,0-2-0.9-2-2L65.4,62z M65.7,71.4c0-1.1,0.9-2,2-2h3.9c1.1,0,2.1,0.9,2.3,2  l0.5,3.9c0.1,1-0.6,1.9-1.6,2c-0.1,0-0.3,0-0.4,0h-4.3c-1.2,0.1-2.2-0.8-2.3-2L65.7,71.4z M73.4,86.8h-4.8c-1.2,0.1-2.3-0.8-2.5-2  L66,80.9c0-1.1,1-2,2.1-2c0,0,0,0,0.1,0h4.4c1.2,0,2.3,0.8,2.5,2l0.5,3.9C75.7,85.9,74.7,86.8,73.4,86.8L73.4,86.8z M76,75.4  l-0.6-3.9c-0.2-0.9,0.4-1.8,1.4-2c0.1,0,0.2,0,0.4,0h3.9c1.2,0.1,2.2,0.9,2.5,2l1,3.9c0.2,0.9-0.3,1.7-1.1,2c-0.2,0.1-0.4,0.1-0.6,0  h-4.4C77.3,77.4,76.3,76.6,76,75.4z M84.9,86.9h-4.8c-1.3,0.1-2.4-0.8-2.7-2l-0.6-3.9c-0.1-1,0.6-1.9,1.6-2c0.1,0,0.3,0,0.4,0h4.4  c1.2,0,2.4,0.8,2.7,2l1,3.9C87.1,85.9,86.2,86.8,84.9,86.9L84.9,86.9z M86.6,66l-1.2-4c-0.3-1.1,0.2-2,1.2-2h3.5  c1.2,0.1,2.2,0.9,2.6,2l1.6,4c0.4,1.1-0.1,2-1.2,2h-3.9C88,67.9,87,67.2,86.6,66z M90.5,75.4l-1.2-3.9c-0.3-0.7,0-1.6,0.7-1.9  c0.2-0.1,0.4-0.1,0.7-0.1h3.9c1.2,0.1,2.3,0.9,2.8,2l1.6,3.9c0.4,0.7,0.1,1.5-0.5,1.8c-0.3,0.1-0.6,0.2-0.9,0.2h-4.3  C92.1,77.4,91,76.6,90.5,75.4L90.5,75.4z M102.5,86.9h-4.8c-1.3,0-2.6-0.8-3.1-2L93.4,81c-0.3-0.8,0.1-1.6,0.9-1.9  c0.2-0.1,0.5-0.1,0.7-0.1h4.4c1.3,0.1,2.5,0.8,3.1,2l1.7,3.9C104.6,85.9,103.9,86.8,102.5,86.9L102.5,86.9z M114,86.9h-4.8  c-1.4,0-2.7-0.8-3.3-2l-1.7-3.9c-0.4-0.6-0.2-1.5,0.5-1.8c0.3-0.2,0.6-0.2,0.9-0.2h4.4c1.4,0.1,2.6,0.8,3.3,2l2.1,3.9  C116,85.9,115.4,86.8,114,86.9L114,86.9z"/>
          <path d="M57.9,31.7c6,2.8,13.1,0.1,15.9-5.9c2.8-6,0.2-13.1-5.8-15.9c0,0,0,0,0,0c-6-2.8-13.1-0.2-16,5.8c0,0,0,0.1,0,0.1  C49.2,21.8,51.9,28.9,57.9,31.7C57.9,31.7,57.9,31.7,57.9,31.7z"/>
          <path d="M57.1,33.6c-1-0.5-2.2,0-2.6,1c0,0,0,0,0,0l-1.7,3.6c-0.5,1,0,2.2,1,2.7c1,0.5,2.2,0,2.7-1c0,0,0,0,0,0l1.7-3.6  C58.5,35.2,58.1,34,57.1,33.6C57.1,33.6,57.1,33.6,57.1,33.6z"/>
          <path d="M68.8,8.1c1,0.5,2.2,0,2.6-1c0,0,0,0,0,0l1.7-3.6c0.5-1,0-2.2-1-2.7s-2.2,0-2.7,1c0,0,0,0,0,0l-1.7,3.7  C67.3,6.4,67.8,7.6,68.8,8.1C68.8,8.1,68.8,8.1,68.8,8.1z"/>
          <path d="M44,14.3l3.6,1.7c1,0.5,2.2,0,2.6-1c0,0,0,0,0,0c0.5-1,0-2.2-1-2.7c0,0,0,0,0,0l-3.7-1.7c-1-0.4-2.2,0.2-2.5,1.2  C42.8,12.8,43.2,13.8,44,14.3z"/>
          <path d="M76.6,29.3l3.6,1.7c1,0.5,2.2,0,2.7-1s0-2.2-1-2.7l0,0l-3.6-1.7c-1-0.5-2.2,0-2.7,1S75.6,28.9,76.6,29.3z"/>
          <path d="M44.2,29.8c0.2,0,0.5,0,0.7-0.1l3.8-1.4c1-0.4,1.6-1.5,1.2-2.6c-0.4-1-1.5-1.6-2.6-1.2l-3.8,1.4c-1,0.4-1.6,1.5-1.2,2.6  C42.6,29.2,43.3,29.8,44.2,29.8L44.2,29.8z"/>
          <path d="M77.9,17.3c0.2,0,0.5,0,0.7-0.1l3.8-1.4c1-0.5,1.4-1.7,0.9-2.7c-0.4-0.9-1.4-1.3-2.3-1.1l-3.8,1.4c-1,0.4-1.6,1.5-1.2,2.6  C76.3,16.8,77.1,17.3,77.9,17.3L77.9,17.3z"/>
          <path d="M55.5,6.5c0.4,1,1.5,1.6,2.5,1.2c1-0.4,1.6-1.5,1.2-2.5c0,0,0,0,0-0.1l-1.4-3.8c-0.4-1-1.5-1.6-2.5-1.2  c-1,0.4-1.6,1.5-1.2,2.5c0,0,0,0,0,0.1L55.5,6.5z"/>
          <path d="M67.8,34c-1,0.4-1.6,1.5-1.2,2.6l1.4,3.7c0.4,1,1.5,1.6,2.5,1.2s1.6-1.5,1.2-2.5c0,0,0,0,0-0.1l-1.4-3.8  C70,34.1,68.8,33.6,67.8,34z"/>
        </g>
      </svg>
    </g>
    <g opacity="1" transform="rotate(0 100.5811 78.1525)">
      <svg width="191.4894" height="120" x="100.5811" y="78.1525" version="1.1" preserveAspectRatio="none" viewBox="3.32 -28.48 237.68 148.95999999999998">
        <g transform="matrix(1 0 0 1 0 0)" class="companyName" style="fill: rgb(24, 33, 69);">
          <path id="id-D6z1nYkh24" d="M14.72 0.48Q11.40 0.48 8.30-0.42Q5.20-1.32 3.32-2.76L3.32-2.76L5.52-7.64Q7.32-6.32 9.80-5.52Q12.28-4.72 14.76-4.72L14.76-4.72Q17.52-4.72 18.84-5.54Q20.16-6.36 20.16-7.72L20.16-7.72Q20.16-8.72 19.38-9.38Q18.60-10.04 17.38-10.44Q16.16-10.84 14.08-11.32L14.08-11.32Q10.88-12.08 8.84-12.84Q6.80-13.60 5.34-15.28Q3.88-16.96 3.88-19.76L3.88-19.76Q3.88-22.20 5.20-24.18Q6.52-26.16 9.18-27.32Q11.84-28.48 15.68-28.48L15.68-28.48Q18.36-28.48 20.92-27.84Q23.48-27.20 25.40-26L25.40-26L23.40-21.08Q19.52-23.28 15.64-23.28L15.64-23.28Q12.92-23.28 11.62-22.40Q10.32-21.52 10.32-20.08L10.32-20.08Q10.32-18.64 11.82-17.94Q13.32-17.24 16.40-16.56L16.40-16.56Q19.60-15.80 21.64-15.04Q23.68-14.28 25.14-12.64Q26.60-11 26.60-8.20L26.60-8.20Q26.60-5.80 25.26-3.82Q23.92-1.84 21.24-0.68Q18.56 0.48 14.72 0.48L14.72 0.48Z M44.60 0.48Q40.24 0.48 36.74-1.40Q33.24-3.28 31.26-6.58Q29.28-9.88 29.28-14L29.28-14Q29.28-18.12 31.26-21.42Q33.24-24.72 36.74-26.60Q40.24-28.48 44.60-28.48L44.60-28.48Q48.96-28.48 52.44-26.60Q55.92-24.72 57.92-21.42Q59.92-18.12 59.92-14L59.92-14Q59.92-9.88 57.92-6.58Q55.92-3.28 52.44-1.40Q48.96 0.48 44.60 0.48L44.60 0.48ZM44.60-5.04Q47.08-5.04 49.08-6.18Q51.08-7.32 52.22-9.36Q53.36-11.40 53.36-14L53.36-14Q53.36-16.60 52.22-18.64Q51.08-20.68 49.08-21.82Q47.08-22.96 44.60-22.96L44.60-22.96Q42.12-22.96 40.12-21.82Q38.12-20.68 36.98-18.64Q35.84-16.60 35.84-14L35.84-14Q35.84-11.40 36.98-9.36Q38.12-7.32 40.12-6.18Q42.12-5.04 44.60-5.04L44.60-5.04Z M64.80 0L64.80-28L71.28-28L71.28-5.28L85.32-5.28L85.32 0L64.80 0Z M110.12 0L107.64-6L94.64-6L92.16 0L85.52 0L98-28L104.40-28L116.92 0L110.12 0ZM96.72-10.92L105.60-10.92L101.16-21.64L96.72-10.92Z M144.64 0L137.68 0L132.28-7.80L131.96-7.80L126.32-7.80L126.32 0L119.84 0L119.84-28L131.96-28Q135.68-28 138.42-26.76Q141.16-25.52 142.64-23.24Q144.12-20.96 144.12-17.84L144.12-17.84Q144.12-14.72 142.62-12.46Q141.12-10.20 138.36-9L138.36-9L144.64 0ZM137.56-17.84Q137.56-20.20 136.04-21.46Q134.52-22.72 131.60-22.72L131.60-22.72L126.32-22.72L126.32-12.96L131.60-12.96Q134.52-12.96 136.04-14.24Q137.56-15.52 137.56-17.84L137.56-17.84Z M15.44 12Q19.16 12 21.90 13.24Q24.64 14.48 26.12 16.76Q27.60 19.04 27.60 22.16L27.60 22.16Q27.60 25.24 26.12 27.54Q24.64 29.84 21.90 31.06Q19.16 32.28 15.44 32.28L15.44 32.28L9.80 32.28L9.80 40L3.32 40L3.32 12L15.44 12ZM15.08 27Q18 27 19.52 25.74Q21.04 24.48 21.04 22.16L21.04 22.16Q21.04 19.80 19.52 18.54Q18 17.28 15.08 17.28L15.08 17.28L9.80 17.28L9.80 27L15.08 27Z M51.72 40L49.24 34L36.24 34L33.76 40L27.12 40L39.60 12L46 12L58.52 40L51.72 40ZM38.32 29.08L47.20 29.08L42.76 18.36L38.32 29.08Z M80.72 12L87.12 12L87.12 40L81.80 40L67.84 23L67.84 40L61.44 40L61.44 12L66.80 12L80.72 29L80.72 12Z M100.20 34.80L115.44 34.80L115.44 40L93.76 40L93.76 12L114.92 12L114.92 17.20L100.20 17.20L100.20 23.28L113.20 23.28L113.20 28.32L100.20 28.32L100.20 34.80Z M120.60 40L120.60 12L127.08 12L127.08 34.72L141.12 34.72L141.12 40L120.60 40Z M24.48 57.20L9.80 57.20L9.80 64.60L22.76 64.60L22.76 69.80L9.80 69.80L9.80 80L3.32 80L3.32 52L24.48 52L24.48 57.20Z M48.64 80L46.16 74L33.16 74L30.68 80L24.04 80L36.52 52L42.92 52L55.44 80L48.64 80ZM35.24 69.08L44.12 69.08L39.68 58.36L35.24 69.08Z M70.20 80.48Q64.20 80.48 60.86 77.16Q57.52 73.84 57.52 67.68L57.52 67.68L57.52 52L64 52L64 67.44Q64 74.96 70.24 74.96L70.24 74.96Q73.28 74.96 74.88 73.14Q76.48 71.32 76.48 67.44L76.48 67.44L76.48 52L82.88 52L82.88 67.68Q82.88 73.84 79.54 77.16Q76.20 80.48 70.20 80.48L70.20 80.48Z M89.28 80L89.28 52L95.76 52L95.76 74.72L109.80 74.72L109.80 80L89.28 80Z M116.64 80L116.64 57.28L107.68 57.28L107.68 52L132.08 52L132.08 57.28L123.12 57.28L123.12 80L116.64 80Z M3.32 120L3.32 92L16.04 92Q20.60 92 24.10 93.74Q27.60 95.48 29.54 98.64Q31.48 101.80 31.48 106L31.48 106Q31.48 110.20 29.54 113.36Q27.60 116.52 24.10 118.26Q20.60 120 16.04 120L16.04 120L3.32 120ZM9.80 114.68L15.72 114.68Q19.92 114.68 22.42 112.34Q24.92 110 24.92 106L24.92 106Q24.92 102 22.42 99.66Q19.92 97.32 15.72 97.32L15.72 97.32L9.80 97.32L9.80 114.68Z M42.80 114.80L58.04 114.80L58.04 120L36.36 120L36.36 92L57.52 92L57.52 97.20L42.80 97.20L42.80 103.28L55.80 103.28L55.80 108.32L42.80 108.32L42.80 114.80Z M69 120L69 97.28L60.04 97.28L60.04 92L84.44 92L84.44 97.28L75.48 97.28L75.48 120L69 120Z M94.36 114.80L109.60 114.80L109.60 120L87.92 120L87.92 92L109.08 92L109.08 97.20L94.36 97.20L94.36 103.28L107.36 103.28L107.36 108.32L94.36 108.32L94.36 114.80Z M128.08 120.48Q123.80 120.48 120.34 118.62Q116.88 116.76 114.90 113.46Q112.92 110.16 112.92 106L112.92 106Q112.92 101.84 114.90 98.54Q116.88 95.24 120.34 93.38Q123.80 91.52 128.12 91.52L128.12 91.52Q131.76 91.52 134.70 92.80Q137.64 94.08 139.64 96.48L139.64 96.48L135.48 100.32Q132.64 97.04 128.44 97.04L128.44 97.04Q125.84 97.04 123.80 98.18Q121.76 99.32 120.62 101.36Q119.48 103.40 119.48 106L119.48 106Q119.48 108.60 120.62 110.64Q121.76 112.68 123.80 113.82Q125.84 114.96 128.44 114.96L128.44 114.96Q132.64 114.96 135.48 111.64L135.48 111.64L139.64 115.48Q137.64 117.92 134.68 119.20Q131.72 120.48 128.08 120.48L128.08 120.48Z M149.52 120L149.52 97.28L140.56 97.28L140.56 92L164.96 92L164.96 97.28L156 97.28L156 120L149.52 120Z M168.44 120L168.44 92L174.92 92L174.92 120L168.44 120Z M195.12 120.48Q190.76 120.48 187.26 118.60Q183.76 116.72 181.78 113.42Q179.80 110.12 179.80 106L179.80 106Q179.80 101.88 181.78 98.58Q183.76 95.28 187.26 93.40Q190.76 91.52 195.12 91.52L195.12 91.52Q199.48 91.52 202.96 93.40Q206.44 95.28 208.44 98.58Q210.44 101.88 210.44 106L210.44 106Q210.44 110.12 208.44 113.42Q206.44 116.72 202.96 118.60Q199.48 120.48 195.12 120.48L195.12 120.48ZM195.12 114.96Q197.60 114.96 199.60 113.82Q201.60 112.68 202.74 110.64Q203.88 108.60 203.88 106L203.88 106Q203.88 103.40 202.74 101.36Q201.60 99.32 199.60 98.18Q197.60 97.04 195.12 97.04L195.12 97.04Q192.64 97.04 190.64 98.18Q188.64 99.32 187.50 101.36Q186.36 103.40 186.36 106L186.36 106Q186.36 108.60 187.50 110.64Q188.64 112.68 190.64 113.82Q192.64 114.96 195.12 114.96L195.12 114.96Z M234.60 92L241 92L241 120L235.68 120L221.72 103L221.72 120L215.32 120L215.32 92L220.68 92L234.60 109L234.60 92Z"/>
        </g>
      </svg>
    </g>
  </svg>
</svg>