<svg version="1.1" preserveAspectRatio="none" xmlns="http://www.w3.org/2000/svg" width="500" height="500" viewBox="0 0 500 500"><rect width="100%" height="100%" fill="#F9F7F7" fill-opacity="1"/><svg viewBox="22.5775 67.3971 184.087 170.7" width="333" height="308.7838902258171" x="83.5px" y="95.6081px" xmlns="http://www.w3.org/2000/svg" xmlns:xlink="http://www.w3.org/1999/xlink" preserveAspectRatio="none"><defs></defs><style>.aq6WP-wJgVstrokeColor-str {stroke:#0C0C0C;stroke-opacity:1;}.companyName {fill:#2C3E57;fill-opacity:1;}.icon1 {fill:#9C8B58;fill-opacity:1;}.icon3 {fill:#C8B889;fill-opacity:1;}.icon3-str {stroke:#C8B889;stroke-opacity:1;}.shape {fill:#9C8B58;fill-opacity:1;}.shapeStroke-str {stroke:#2C3E57;stroke-opacity:1;}</style><g opacity="1" transform="rotate(0 22.5775 222.3971)">
<svg width="52.0435" height="1.4" x="22.5775" y="222.3971" version="1.1" preserveAspectRatio="none" viewBox="0 0 52.0435 1.4">
  <defs><rect x="0" y="0" width="52.0435" height="1.4" rx="0px" ry="0px" id="id-5kldYRpCP1684846483975"></rect></defs><use class="icon1 shapeStroke-str" style="stroke-width:0;" xlink:href="#id-5kldYRpCP1684846483975"></use>
</svg>
</g><g opacity="1" transform="rotate(0 91.188 206.0971)">
<svg width="46.8661" height="32" x="91.188" y="206.0971" version="1.1" preserveAspectRatio="none" viewBox="19.99881172180176 45.37599182128906 160.0006866455078 109.24801635742188">
  <g transform="matrix(1 0 0 1 0 0)" ><g><path d="M120.23 154.624c-6.238 0-12.903-.92-19.976-2.761a2.286 2.286 0 0 1-1.709-2.033c-1.549-19.328 2.791-34.715 12.903-45.73 12.783-13.927 35.069-21.078 66.247-21.254.665.166 1.334.296 1.768.818.439.522.622 1.212.499 1.883-5.591 30.676-16.503 51.385-32.436 61.552-7.852 5.011-16.988 7.525-27.296 7.525zm-17.236-6.797c16.793 4.065 30.936 2.514 42.066-4.589 14.356-9.157 24.399-27.914 29.879-55.776-28.387.558-48.602 7.193-60.116 19.735-8.931 9.733-12.907 23.398-11.829 40.63z" data-color="1" class="icon1"></path><path d="M79.769 154.624c-10.31 0-19.443-2.51-27.297-7.525-15.934-10.167-26.847-30.876-32.436-61.552a2.29 2.29 0 0 1 2.255-2.701h.013c31.178.177 53.468 7.329 66.249 21.254 10.107 11.015 14.449 26.402 12.898 45.73a2.286 2.286 0 0 1-1.709 2.033c-7.071 1.84-13.737 2.761-19.973 2.761zM25.063 87.462c5.48 27.861 15.523 46.619 29.875 55.776 11.136 7.108 25.279 8.65 42.063 4.589 1.084-17.232-2.891-30.897-11.822-40.63C73.667 94.655 53.45 88.02 25.063 87.462zm74.105 62.185h.043-.043z" data-color="1" class="icon1"></path><path d="M101.456 150.277c-.464 0-.929-.145-1.329-.426-15.8-11.237-24.795-24.45-26.736-39.275-2.452-18.742 6.398-40.412 26.302-64.411.869-1.052 2.659-1.052 3.528 0 19.904 23.999 28.754 45.668 26.3 64.411-1.939 14.824-10.934 28.038-26.734 39.275a2.325 2.325 0 0 1-1.331.426zm0-99.032c-17.82 22.107-25.731 41.857-23.523 58.739 1.715 13.099 9.626 24.923 23.523 35.171 13.895-10.248 21.808-22.073 23.521-35.171 2.212-16.882-5.701-36.632-23.521-58.739z" data-color="1" class="icon1"></path></g></g>
</svg>
</g><g opacity="1" transform="rotate(0 22.5775 67.3971)">
<svg width="184.087" height="120" x="22.5775" y="67.3971" version="1.1" preserveAspectRatio="none" viewBox="2.4 -28.56 237.95999999999998 155.12">
  <g transform="matrix(1 0 0 1 0 0)" class="companyName"><path id="id-D6z1nYkh24" d="M55.96-1.64L55.96-1.64Q55.84-2.20 55.84-3.80Q55.84-5.40 56.44-7.20L56.44-7.20L56.80-7.20Q56.76-6.76 56.76-6.32L56.76-6.32Q56.76-3.88 58.24-2.26Q59.72-0.64 62.16-0.64L62.16-0.64Q64.68-0.64 66.30-2.16Q67.92-3.68 67.92-5.98Q67.92-8.28 66.36-9.72L66.36-9.72L58.68-16.84Q56.52-18.84 56.52-21.68Q56.52-24.52 58.42-26.54Q60.32-28.56 63.56-28.56L63.56-28.56Q65.08-28.56 67-28.16L67-28.16L68.56-28.16L68.56-23.24L68.20-23.24Q68.20-25.12 66.90-26.24Q65.60-27.36 63.56-27.36Q61.52-27.36 60.14-26Q58.76-24.64 58.76-22.60Q58.76-20.56 60.36-19.08L60.36-19.08L68.24-11.80Q70.24-9.96 70.24-6.76Q70.24-3.56 68.20-1.50Q66.16 0.56 62.76 0.56L62.76 0.56Q61 0.56 59.02 0.02Q57.04-0.52 55.96-1.64Z M80.10-24.54Q84.08-28.56 90.48-28.56Q96.88-28.56 100.88-24.54Q104.88-20.52 104.88-14Q104.88-7.48 100.88-3.46Q96.88 0.56 90.48 0.56Q84.08 0.56 80.10-3.46Q76.12-7.48 76.12-14Q76.12-20.52 80.10-24.54ZM82.30-4.32Q85.40-0.64 90.50-0.64Q95.60-0.64 98.70-4.32Q101.80-8 101.80-14L101.80-14Q101.80-17.96 100.40-21Q99-24.04 96.42-25.70Q93.84-27.36 90.48-27.36L90.48-27.36Q85.40-27.36 82.30-23.68Q79.20-20 79.20-14Q79.20-8 82.30-4.32Z M109.24-0.40L109.76-0.40Q110.80-0.40 111.54-1.14Q112.28-1.88 112.32-2.92L112.32-2.92L112.32-25.08Q112.28-26.12 111.54-26.86Q110.80-27.60 109.76-27.60L109.76-27.60L109.24-27.60L109.24-28L118-28L118-27.60L117.48-27.60Q116.04-27.60 115.28-26.36L115.28-26.36Q114.92-25.76 114.92-25.08L114.92-25.08L114.92-1.24L120.64-1.24Q123.60-1.24 125.16-2.56Q126.72-3.88 127.76-6.48L127.76-6.48L128.16-6.48L125.84 0L109.24 0L109.24-0.40Z M158.72-0.40L158.72-0.40L159.04-0.40L159.04 0L150.04 0L150.04-0.40L150.40-0.40Q151.24-0.40 151.66-0.94Q152.08-1.48 152.08-1.96Q152.08-2.44 151.92-2.92L151.92-2.92L149.36-9.72L138.56-9.72L135.88-2.88Q135.72-2.40 135.72-1.94Q135.72-1.48 136.14-0.94Q136.56-0.40 137.40-0.40L137.40-0.40L137.76-0.40L137.76 0L129.72 0L129.72-0.40L130.08-0.40Q131.08-0.40 132.04-1.04Q133-1.68 133.60-2.92L133.60-2.92L142.64-24.44Q144.12-27.68 144.12-28.56L144.12-28.56L144.48-28.56L155.20-2.92Q155.76-1.68 156.72-1.04Q157.68-0.40 158.72-0.40ZM144.08-23.76L139.04-10.92L148.88-10.92L144.08-23.76Z M170.04-26.76L170.04-26.76L167.48-26.76L167.48-2.92Q167.48-1.88 168.22-1.14Q168.96-0.40 170.04-0.40L170.04-0.40L170.52-0.40L170.56 0L161.80 0L161.80-0.40L162.32-0.40Q163.36-0.40 164.10-1.12Q164.84-1.84 164.88-2.88L164.88-2.88L164.88-25.08Q164.84-26.12 164.10-26.86Q163.36-27.60 162.32-27.60L162.32-27.60L161.80-27.60L161.80-28L172.60-28Q176.24-28 178.32-25.98Q180.40-23.96 180.40-20.74Q180.40-17.52 178.42-15.18Q176.44-12.84 173.60-12.84L173.60-12.84Q174.20-12.56 175.02-11.74Q175.84-10.92 176.48-10.04L176.48-10.04Q179.92-5.12 180.96-3.98Q182-2.84 182.44-2.42Q182.88-2 183.40-1.60Q183.92-1.20 184.44-0.96L184.44-0.96Q185.60-0.40 186.92-0.40L186.92-0.40L186.92 0L184.72 0Q183 0 181.52-0.62Q180.04-1.24 179.30-1.90Q178.56-2.56 178.02-3.18Q177.48-3.80 175.04-7.32Q172.60-10.84 172.20-11.34Q171.80-11.84 171.36-12.32L171.36-12.32Q170.08-13.68 168.80-13.68L168.80-13.68L168.80-14.08Q169.12-14.04 169.64-14.04Q170.16-14.04 170.92-14.08L170.92-14.08Q175.88-14.20 177.16-18.24L177.16-18.24Q177.40-19.04 177.40-19.74Q177.40-20.44 177.40-20.64L177.40-20.64Q177.32-23.32 176-24.96Q174.68-26.60 172.44-26.72L172.44-26.72Q171.48-26.76 170.04-26.76Z M76.66 21.72L76.66 21.72Q76.66 23.48 75.94 25L75.94 25Q74.62 27.84 71.30 28.96L71.30 28.96Q70.14 29.36 69.30 29.36L69.30 29.36Q66.82 29.36 65.02 28.44L65.02 28.44L65.02 28.04Q67.94 28.68 70.42 27.40L70.42 27.40Q72.62 26.28 73.42 23.72L73.42 23.72Q73.66 22.92 73.66 22.20Q73.66 21.48 73.66 21.32L73.66 21.32Q73.58 18.52 72.18 16.86Q70.78 15.20 68.26 15.20L68.26 15.20L63.66 15.20L63.66 39.08Q63.70 40.12 64.44 40.86Q65.18 41.60 66.22 41.60L66.22 41.60L66.74 41.60L66.74 42L57.98 42L57.98 41.60L58.50 41.60Q59.54 41.60 60.28 40.86Q61.02 40.12 61.06 39.08L61.06 39.08L61.06 16.72Q60.94 15.72 60.22 15.06Q59.50 14.40 58.50 14.40L58.50 14.40L58.02 14.40L57.98 14L68.42 14Q72.26 14 74.46 16.06Q76.66 18.12 76.66 21.72Z M105.26 41.60L105.26 41.60L105.58 41.60L105.58 42L96.58 42L96.58 41.60L96.94 41.60Q97.78 41.60 98.20 41.06Q98.62 40.52 98.62 40.04Q98.62 39.56 98.46 39.08L98.46 39.08L95.90 32.28L85.10 32.28L82.42 39.12Q82.26 39.60 82.26 40.06Q82.26 40.52 82.68 41.06Q83.10 41.60 83.94 41.60L83.94 41.60L84.30 41.60L84.30 42L76.26 42L76.26 41.60L76.62 41.60Q77.62 41.60 78.58 40.96Q79.54 40.32 80.14 39.08L80.14 39.08L89.18 17.56Q90.66 14.32 90.66 13.44L90.66 13.44L91.02 13.44L101.74 39.08Q102.30 40.32 103.26 40.96Q104.22 41.60 105.26 41.60ZM90.62 18.24L85.58 31.08L95.42 31.08L90.62 18.24Z M137.78 14.40L137.06 14.40Q136.06 14.40 135.34 15.10Q134.62 15.80 134.58 16.80L134.58 16.80L134.58 37.44Q134.58 39.76 134.86 41.84L134.86 41.84L134.94 42.56L134.58 42.56L112.78 19.28L112.78 39.20Q112.82 40.60 114.02 41.28L114.02 41.28Q114.58 41.60 115.22 41.60L115.22 41.60L115.98 41.60L115.98 42L107.74 42L107.74 41.60L108.50 41.60Q109.50 41.60 110.22 40.90Q110.94 40.20 110.94 39.16L110.94 39.16L110.94 18.40Q110.94 15.96 110.66 14.04L110.66 14.04L110.58 13.40L110.98 13.40L132.78 36.68L132.78 16.84Q132.74 15.80 132.02 15.10Q131.30 14.40 130.30 14.40L130.30 14.40L129.54 14.40L129.54 14L137.78 14L137.78 14.40Z M142.38 41.60L142.90 41.60Q143.94 41.60 144.68 40.86Q145.42 40.12 145.46 39.08L145.46 39.08L145.46 16.68Q145.34 15.72 144.62 15.06Q143.90 14.40 142.90 14.40L142.90 14.40L142.42 14.40L142.38 14L154.10 14Q155.34 14 156.80 13.76Q158.26 13.52 158.86 13.28L158.86 13.28L158.86 18.32L158.46 18.32L158.46 17.60Q158.46 16.64 157.80 15.96Q157.14 15.28 156.22 15.24L156.22 15.24L148.06 15.24L148.06 27.60L154.82 27.60Q155.62 27.56 156.18 27Q156.74 26.44 156.74 25.60L156.74 25.60L156.74 25.04L157.14 25.04L157.14 31.36L156.74 31.36L156.74 30.76Q156.74 29.96 156.20 29.40Q155.66 28.84 154.86 28.80L154.86 28.80L148.06 28.80L148.06 40.76L153.78 40.76Q156.74 40.76 158.30 39.44Q159.86 38.12 160.90 35.52L160.90 35.52L161.30 35.52L158.98 42L142.38 42L142.38 41.60Z M165.86 41.60L166.38 41.60Q167.42 41.60 168.16 40.86Q168.90 40.12 168.94 39.08L168.94 39.08L168.94 16.92Q168.90 15.88 168.16 15.14Q167.42 14.40 166.38 14.40L166.38 14.40L165.86 14.40L165.86 14L174.62 14L174.62 14.40L174.10 14.40Q172.66 14.40 171.90 15.64L171.90 15.64Q171.54 16.24 171.54 16.92L171.54 16.92L171.54 40.76L177.26 40.76Q180.22 40.76 181.78 39.44Q183.34 38.12 184.38 35.52L184.38 35.52L184.78 35.52L182.46 42L165.86 42L165.86 41.60Z M77.98 55.28L77.98 56.44L77.98 59.80L77.58 59.80L77.58 59.20Q77.58 58.40 77.02 57.82Q76.46 57.24 75.62 57.24L75.62 57.24L67.18 57.24L67.18 69.60L73.94 69.60Q74.74 69.56 75.30 69Q75.86 68.44 75.86 67.64L75.86 67.64L75.86 67.04L76.26 67.04L76.26 73.36L75.86 73.36L75.86 72.76Q75.86 71.96 75.32 71.40Q74.78 70.84 73.98 70.80L73.98 70.80L67.18 70.80L67.18 81.08Q67.18 82.12 67.94 82.86Q68.70 83.60 69.74 83.60L69.74 83.60L70.26 83.60L70.26 84L61.50 84L61.50 83.60L62.02 83.60Q63.06 83.60 63.80 82.86Q64.54 82.12 64.58 81.08L64.58 81.08L64.58 58.68Q64.58 57.72 63.80 57.06Q63.02 56.40 62.02 56.40L62.02 56.40L61.54 56.40L61.50 56L73.22 56Q74.46 56 75.92 55.76Q77.38 55.52 77.98 55.28L77.98 55.28Z M107.34 83.60L107.34 83.60L107.66 83.60L107.66 84L98.66 84L98.66 83.60L99.02 83.60Q99.86 83.60 100.28 83.06Q100.70 82.52 100.70 82.04Q100.70 81.56 100.54 81.08L100.54 81.08L97.98 74.28L87.18 74.28L84.50 81.12Q84.34 81.60 84.34 82.06Q84.34 82.52 84.76 83.06Q85.18 83.60 86.02 83.60L86.02 83.60L86.38 83.60L86.38 84L78.34 84L78.34 83.60L78.70 83.60Q79.70 83.60 80.66 82.96Q81.62 82.32 82.22 81.08L82.22 81.08L91.26 59.56Q92.74 56.32 92.74 55.44L92.74 55.44L93.10 55.44L103.82 81.08Q104.38 82.32 105.34 82.96Q106.30 83.60 107.34 83.60ZM92.70 60.24L87.66 73.08L97.50 73.08L92.70 60.24Z M136.02 56L136.02 56.40L135.38 56.40Q134.54 56.40 133.92 56.94Q133.30 57.48 133.26 58.28L133.26 58.28L133.26 74.12Q133.26 78.80 130.30 81.68Q127.34 84.56 122.42 84.56Q117.50 84.56 114.44 81.70Q111.38 78.84 111.38 74.16L111.38 74.16L111.38 58.40Q111.38 57.20 110.34 56.64L110.34 56.64Q109.86 56.40 109.26 56.40L109.26 56.40L108.62 56.40L108.62 56L116.74 56L116.74 56.40L116.10 56.40Q115.22 56.40 114.62 56.94Q114.02 57.48 113.98 58.32L113.98 58.32L113.98 73.60Q113.98 77.96 116.32 80.64Q118.66 83.32 122.58 83.32Q126.50 83.32 128.94 80.78Q131.38 78.24 131.38 74.12L131.38 74.12L131.38 58.32Q131.34 57.48 130.74 56.94Q130.14 56.40 129.26 56.40L129.26 56.40L128.62 56.40L128.62 56L136.02 56Z M140.70 83.60L141.22 83.60Q142.26 83.60 143 82.86Q143.74 82.12 143.78 81.08L143.78 81.08L143.78 58.92Q143.74 57.88 143 57.14Q142.26 56.40 141.22 56.40L141.22 56.40L140.70 56.40L140.70 56L149.46 56L149.46 56.40L148.94 56.40Q147.50 56.40 146.74 57.64L146.74 57.64Q146.38 58.24 146.38 58.92L146.38 58.92L146.38 82.76L152.10 82.76Q155.06 82.76 156.62 81.44Q158.18 80.12 159.22 77.52L159.22 77.52L159.62 77.52L157.30 84L140.70 84L140.70 83.60Z M180.86 60.24L180.86 59.56Q180.86 58.60 180.18 57.90Q179.50 57.20 178.58 57.16L178.58 57.16L170.98 57.16L170.98 81.12Q171.02 82.16 171.76 82.88Q172.50 83.60 173.54 83.60L173.54 83.60L174.06 83.60L174.06 84L165.30 84L165.30 83.60L165.82 83.60Q166.86 83.60 167.60 82.88Q168.34 82.16 168.38 81.16L168.38 81.16L168.38 57.16L160.78 57.16Q159.82 57.20 159.16 57.90Q158.50 58.60 158.50 59.56L158.50 59.56L158.50 60.24L158.10 60.28L158.10 55.24Q158.70 55.48 160.18 55.72Q161.66 55.96 162.90 55.96L162.90 55.96L176.42 55.96Q178.38 55.96 179.68 55.66Q180.98 55.36 181.26 55.24L181.26 55.24L181.26 60.28L180.86 60.24Z M15.96 98.00Q22.36 98.00 26.34 101.86Q30.32 105.72 30.32 112.00Q30.32 118.28 26.34 122.14Q22.36 126.00 15.96 126.00L15.96 126.00L2.40 126.00L2.40 125.60L2.92 125.60Q3.96 125.60 4.70 124.86Q5.44 124.12 5.48 123.08L5.48 123.08L5.48 100.68Q5.48 99.72 4.70 99.06Q3.92 98.40 2.92 98.40L2.92 98.40L2.44 98.40L2.40 98.00L15.96 98.00ZM15.96 99.20L8.08 99.20L8.08 124.80L15.96 124.80Q19.32 124.80 21.90 123.20Q24.48 121.60 25.90 118.70Q27.32 115.80 27.32 112.00L27.32 112.00Q27.32 106.24 24.18 102.72Q21.04 99.20 15.96 99.20L15.96 99.20Z M34.68 125.60L35.20 125.60Q36.24 125.60 36.98 124.86Q37.72 124.12 37.76 123.08L37.76 123.08L37.76 100.68Q37.64 99.72 36.92 99.06Q36.20 98.40 35.20 98.40L35.20 98.40L34.72 98.40L34.68 98.00L46.40 98.00Q47.64 98.00 49.10 97.76Q50.56 97.52 51.16 97.28L51.16 97.28L51.16 102.32L50.76 102.32L50.76 101.60Q50.76 100.64 50.10 99.96Q49.44 99.28 48.52 99.24L48.52 99.24L40.36 99.24L40.36 111.60L47.12 111.60Q47.92 111.56 48.48 111.00Q49.04 110.44 49.04 109.60L49.04 109.60L49.04 109.04L49.44 109.04L49.44 115.36L49.04 115.36L49.04 114.76Q49.04 113.96 48.50 113.40Q47.96 112.84 47.16 112.80L47.16 112.80L40.36 112.80L40.36 124.76L46.08 124.76Q49.04 124.76 50.60 123.44Q52.16 122.12 53.20 119.52L53.20 119.52L53.60 119.52L51.28 126.00L34.68 126.00L34.68 125.60Z M79.72 102.24L79.72 101.56Q79.72 100.60 79.04 99.90Q78.36 99.20 77.44 99.16L77.44 99.16L69.84 99.16L69.84 123.12Q69.88 124.16 70.62 124.88Q71.36 125.60 72.40 125.60L72.40 125.60L72.92 125.60L72.92 126.00L64.16 126.00L64.16 125.60L64.68 125.60Q65.72 125.60 66.46 124.88Q67.20 124.16 67.24 123.16L67.24 123.16L67.24 99.16L59.64 99.16Q58.68 99.20 58.02 99.90Q57.36 100.60 57.36 101.56L57.36 101.56L57.36 102.24L56.96 102.28L56.96 97.24Q57.56 97.48 59.04 97.72Q60.52 97.96 61.76 97.96L61.76 97.96L75.28 97.96Q77.24 97.96 78.54 97.66Q79.84 97.36 80.12 97.24L80.12 97.24L80.12 102.28L79.72 102.24Z M84.08 125.60L84.60 125.60Q85.64 125.60 86.38 124.86Q87.12 124.12 87.16 123.08L87.16 123.08L87.16 100.68Q87.04 99.72 86.32 99.06Q85.60 98.40 84.60 98.40L84.60 98.40L84.12 98.40L84.08 98.00L95.80 98.00Q97.04 98.00 98.50 97.76Q99.96 97.52 100.56 97.28L100.56 97.28L100.56 102.32L100.16 102.32L100.16 101.60Q100.16 100.64 99.50 99.96Q98.84 99.28 97.92 99.24L97.92 99.24L89.76 99.24L89.76 111.60L96.52 111.60Q97.32 111.56 97.88 111.00Q98.44 110.44 98.44 109.60L98.44 109.60L98.44 109.04L98.84 109.04L98.84 115.36L98.44 115.36L98.44 114.76Q98.44 113.96 97.90 113.40Q97.36 112.84 96.56 112.80L96.56 112.80L89.76 112.80L89.76 124.76L95.48 124.76Q98.44 124.76 100 123.44Q101.56 122.12 102.60 119.52L102.60 119.52L103 119.52L100.68 126.00L84.08 126.00L84.08 125.60Z M121.44 126.56Q115.12 126.52 111.14 122.52Q107.16 118.52 107.16 111.98Q107.16 105.44 111.14 101.44Q115.12 97.44 121.68 97.44L121.68 97.44Q127.04 97.44 131.16 100.16L131.16 100.16L131.96 105.80L131.60 105.80Q130.72 102.36 128.04 100.50Q125.36 98.64 121.68 98.64L121.68 98.64Q116.44 98.64 113.30 102.28Q110.16 105.92 110.16 111.92Q110.16 117.92 113.26 121.58Q116.36 125.24 121.44 125.36L121.44 125.36Q125.92 125.36 128.92 122.92L128.92 122.92Q132.16 120.28 132.84 114.32L132.84 114.32L133.16 114.32L132.68 120.60Q129.04 126.56 121.44 126.56L121.44 126.56Z M159.52 102.24L159.52 101.56Q159.52 100.60 158.84 99.90Q158.16 99.20 157.24 99.16L157.24 99.16L149.64 99.16L149.64 123.12Q149.68 124.16 150.42 124.88Q151.16 125.60 152.20 125.60L152.20 125.60L152.72 125.60L152.72 126.00L143.96 126.00L143.96 125.60L144.48 125.60Q145.52 125.60 146.26 124.88Q147 124.16 147.04 123.16L147.04 123.16L147.04 99.16L139.44 99.16Q138.48 99.20 137.82 99.90Q137.16 100.60 137.16 101.56L137.16 101.56L137.16 102.24L136.76 102.28L136.76 97.24Q137.36 97.48 138.84 97.72Q140.32 97.96 141.56 97.96L141.56 97.96L155.08 97.96Q157.04 97.96 158.34 97.66Q159.64 97.36 159.92 97.24L159.92 97.24L159.92 102.28L159.52 102.24Z M163.88 125.60L164.40 125.60Q165.44 125.60 166.18 124.86Q166.92 124.12 166.96 123.08L166.96 123.08L166.96 100.88Q166.92 99.84 166.18 99.12Q165.44 98.40 164.40 98.40L164.40 98.40L163.88 98.40L163.88 98.00L172.64 98.00L172.64 98.40L172.12 98.40Q171.08 98.40 170.34 99.12Q169.60 99.84 169.56 100.88L169.56 100.88L169.56 123.08Q169.56 124.12 170.32 124.86Q171.08 125.60 172.12 125.60L172.12 125.60L172.64 125.60L172.64 126.00L163.88 126.00L163.88 125.60Z M181.78 101.46Q185.76 97.44 192.16 97.44Q198.56 97.44 202.56 101.46Q206.56 105.48 206.56 112.00Q206.56 118.52 202.56 122.54Q198.56 126.56 192.16 126.56Q185.76 126.56 181.78 122.54Q177.80 118.52 177.80 112.00Q177.80 105.48 181.78 101.46ZM183.98 121.68Q187.08 125.36 192.18 125.36Q197.28 125.36 200.38 121.68Q203.48 118.00 203.48 112.00L203.48 112.00Q203.48 108.04 202.08 105.00Q200.68 101.96 198.10 100.30Q195.52 98.64 192.16 98.64L192.16 98.64Q187.08 98.64 183.98 102.32Q180.88 106.00 180.88 112.00Q180.88 118.00 183.98 121.68Z M240.36 98.40L239.64 98.40Q238.64 98.40 237.92 99.10Q237.20 99.80 237.16 100.80L237.16 100.80L237.16 121.44Q237.16 123.76 237.44 125.84L237.44 125.84L237.52 126.56L237.16 126.56L215.36 103.28L215.36 123.20Q215.40 124.60 216.60 125.28L216.60 125.28Q217.16 125.60 217.80 125.60L217.80 125.60L218.56 125.60L218.56 126.00L210.32 126.00L210.32 125.60L211.08 125.60Q212.08 125.60 212.80 124.90Q213.52 124.20 213.52 123.16L213.52 123.16L213.52 102.40Q213.52 99.96 213.24 98.04L213.24 98.04L213.16 97.40L213.56 97.40L235.36 120.68L235.36 100.84Q235.32 99.80 234.60 99.10Q233.88 98.40 232.88 98.40L232.88 98.40L232.12 98.40L232.12 98.00L240.36 98.00L240.36 98.40Z"/></g>
</svg>
</g><g opacity="1" transform="rotate(0 154.621 222.3971)">
<svg width="52.0435" height="1.4" x="154.621" y="222.3971" version="1.1" preserveAspectRatio="none" viewBox="0 0 52.0435 1.4">
  <defs><rect x="0" y="0" width="52.0435" height="1.4" rx="0px" ry="0px" id="id-q6WP-wJgV1684846483976"></rect></defs><use class="icon1 aq6WP-wJgVstrokeColor-str" style="stroke-width:0;" xlink:href="#id-q6WP-wJgV1684846483976"></use>
</svg>
</g></svg></svg>